<svg xmlns="http://www.w3.org/2000/svg" viewBox="0 0 312.24 380.83"><defs><style>.cls-1{fill:none;stroke:#000;stroke-miterlimit:10;stroke-width:6px;}</style></defs><title>żarówa</title><g id="Warstwa_2" data-name="Warstwa 2"><g id="Warstwa_1-2" data-name="Warstwa 1"><path class="cls-1" d="M156.23,317.55c-5.59,0-11.19,0-16.78,0-13.72-.09-23.27-9.66-23.35-23.41,0-8.63.23-17.28-1.59-25.82A75.39,75.39,0,0,0,94,229.83c-9.5-9.51-17.24-20.08-22.43-32.51A91.09,91.09,0,0,1,93.14,96.41c18.8-17.78,41.22-26.32,67.08-25.33,41,1.57,76.53,31.15,85.14,71.46,6.89,32.28-1.31,60.77-24.44,84.43-10.4,10.63-18.36,22.41-22.14,36.86a85.81,85.81,0,0,0-2.56,21.24c0,5.19.19,10.52-.88,15.54a21.56,21.56,0,0,1-20.78,16.86c-6.11.17-12.22,0-18.33,0Zm0-16.63c5.44,0,10.88,0,16.33,0,4.8,0,7.06-2.3,7.09-7.16,0-3.13,0-6.26,0-9.39a93.24,93.24,0,0,1,4.41-29.47c4.95-15.55,13.94-28.37,25.33-40,18.39-18.7,25.19-41.47,20.06-67.12-8.87-44.39-53.64-70.22-96.77-56.38C93.45,104,71.64,148.23,85.43,187c4.33,12.2,11.66,22.28,20.69,31.44,13.16,13.32,21.31,29.41,24.95,47.81,1.83,9.22,1.65,18.53,1.66,27.84,0,4.43,2.32,6.76,6.73,6.79C145.05,301,150.64,300.92,156.23,300.92Z"/><path class="cls-1" d="M156.2,338.35c-8.79,0-17.58,0-26.38,0-4.29,0-7-2.64-6.95-6.45a6.06,6.06,0,0,1,5.54-6c.67-.06,1.34-.06,2-.06h51.41a20.77,20.77,0,0,1,2.23.07,6.24,6.24,0,0,1,5.43,5.66A6.16,6.16,0,0,1,185,338a14.18,14.18,0,0,1-3.32.34Q168.95,338.37,156.2,338.35Z"/><path class="cls-1" d="M156.08,345.6c9,0,18-.06,27,0a6.15,6.15,0,0,1,5.81,8.71c-1.22,2.68-3.49,3.75-6.33,3.76-5.81,0-11.62,0-17.43,0-11.77,0-23.55,0-35.32,0-4,0-6.74-2.33-7-5.75a6.1,6.1,0,0,1,6.38-6.72C138.2,345.56,147.14,345.6,156.08,345.6Z"/><path class="cls-1" d="M235.57,84c-3.43-.17-5.34-1.21-6.47-3.36a6,6,0,0,1,.29-6.36,8.73,8.73,0,0,1,1.14-1.37l24.64-24.65a6.38,6.38,0,0,1,5.6-2.17,6.19,6.19,0,0,1,4.06,10,40.49,40.49,0,0,1-3.4,3.54c-7.26,7.27-14.49,14.58-21.84,21.77A19.64,19.64,0,0,1,235.57,84Z"/><path class="cls-1" d="M77.54,227.93c5,.4,8,5.41,5.62,9.61a5.66,5.66,0,0,1-.9,1.26q-12.78,12.82-25.59,25.6a6,6,0,0,1-6.42,1.4c-2.29-.78-4-2.51-4-4.9A8.14,8.14,0,0,1,48,255.66c8.33-8.63,16.84-17.08,25.4-25.47C74.45,229.12,76.13,228.67,77.54,227.93Z"/><path class="cls-1" d="M27.22,162.29c-6,0-12.07,0-18.1,0a5.78,5.78,0,0,1-5.55-3.8,5.44,5.44,0,0,1,1.27-6.56,7.77,7.77,0,0,1,4.53-2c11.92-.16,23.84-.15,35.75-.05a6.06,6.06,0,0,1,6.35,6.34c-.06,3.58-2.65,6-6.6,6.07-5.88.06-11.77,0-17.65,0Z"/><path class="cls-1" d="M162.34,27.11c0,6.11,0,12.22,0,18.33a6.13,6.13,0,0,1-11.26,3.23,8.57,8.57,0,0,1-1.12-4q-.12-17.43,0-34.86c0-4.12,2.78-6.91,6.41-6.81s6,2.85,6,6.91c0,5.73,0,11.47,0,17.2Z"/><path class="cls-1" d="M284.91,162.29c-6,0-12.07.06-18.1,0a6.15,6.15,0,0,1-2.47-11.71,8.55,8.55,0,0,1,3.24-.68q17.43-.08,34.85,0c3.3,0,5.59,1.6,6.47,4.2a5.85,5.85,0,0,1-2,6.8,9.22,9.22,0,0,1-4.54,1.39c-5.81.16-11.62.07-17.43.07Z"/><path class="cls-1" d="M76.94,84a14.16,14.16,0,0,1-3.69-2.07Q60.56,69.47,48.09,56.81a6.11,6.11,0,0,1-.14-9c2.54-2.5,6.23-2.47,9,.26q12.54,12.44,25,25a6,6,0,0,1,1.5,7.16C82.38,82.6,80.42,83.81,76.94,84Z"/><path class="cls-1" d="M228.32,235.47c.16-3.66,1.35-5.54,3.65-6.58a5.79,5.79,0,0,1,6.49.83c1.52,1.3,2.9,2.78,4.32,4.2,7,7,14,14,21,21a6.78,6.78,0,0,1,2.39,5.31,5.86,5.86,0,0,1-3.29,5.22,6,6,0,0,1-6.35-.35,11.72,11.72,0,0,1-1.68-1.47c-8-8-16.05-16-24-24.05A18.33,18.33,0,0,1,228.32,235.47Z"/><path class="cls-1" d="M156.16,365.31c4.32,0,8.64,0,13,0,4.12,0,6.91,2.61,6.86,6.3s-2.78,6.17-6.78,6.19q-12.94.06-25.9,0c-4.07,0-6.92-2.7-6.87-6.33s2.88-6.14,7-6.16S151.92,365.31,156.16,365.31Z"/><path class="cls-1" d="M156.23,300.92c-5.59,0-11.18,0-16.77,0-4.41,0-6.72-2.36-6.73-6.79,0-9.31.17-18.62-1.66-27.84-3.64-18.4-11.79-34.49-24.95-47.81-9-9.16-16.36-19.24-20.69-31.44-13.79-38.81,8-83,47.25-95.6,43.13-13.84,87.9,12,96.77,56.38,5.13,25.65-1.67,48.42-20.06,67.12-11.39,11.59-20.38,24.41-25.33,40a93.24,93.24,0,0,0-4.41,29.47c0,3.13,0,6.26,0,9.39,0,4.86-2.29,7.15-7.09,7.16C167.11,300.94,161.67,300.92,156.23,300.92Z"/></g></g></svg>