<svg xmlns="http://www.w3.org/2000/svg" viewBox="0 0 217.72 237.56"><defs><style>.cls-1{fill:none;}.cls-1,.cls-2{stroke:#1d1d1b;stroke-miterlimit:10;stroke-width:6px;}.cls-2{fill:#1d1d1b;}</style></defs><title>diamond</title><g id="Warstwa_2" data-name="Warstwa 2"><g id="Warstwa_2-2" data-name="Warstwa 2"><polygon class="cls-1" points="119.9 232.13 214.02 107.57 176.94 53.93 62.82 53.93 26.82 106.85 119.9 232.13"/><polyline class="cls-1" points="176.94 53.93 119.9 227.93 62.82 53.93"/><line class="cls-1" x1="214.02" y1="107.57" x2="26.82" y2="106.85"/><line class="cls-1" x1="123.3" y1="53.93" x2="80" y2="107.57"/><line class="cls-1" x1="117.18" y1="53.93" x2="159.84" y2="107.36"/><polygon class="cls-2" points="28.71 63.03 19.32 54.33 6.84 57.13 12.21 45.52 5.68 34.51 18.39 36.03 26.84 26.42 29.32 38.97 41.07 44.04 29.9 50.28 28.71 63.03"/><polygon class="cls-2" points="60.16 22.64 54.07 20.78 49.09 24.74 48.98 18.38 43.67 14.86 49.69 12.79 51.4 6.66 55.23 11.74 61.58 11.47 57.93 16.68 60.16 22.64"/></g></g></svg>