<svg xmlns="http://www.w3.org/2000/svg" viewBox="0 0 445.95 410.53"><defs><style>.cls-1{fill:none;stroke:#1d1d1b;stroke-miterlimit:10;stroke-width:10px;}</style></defs><title>młooootek</title><g id="Warstwa_2" data-name="Warstwa 2"><g id="Warstwa_2-2" data-name="Warstwa 2"><path class="cls-1" d="M437.51,168.53a8.19,8.19,0,0,0,3.24-4.32v-.07a8.16,8.16,0,0,0-.73-5.33c-3-6.65-16.44-16.32-16.44-16.32-1-.71-2.85-2-5.28-3.6a82.17,82.17,0,0,0-8.64-5,76.28,76.28,0,0,0-7.44-3.12c-.9-.33-2.39-.86-8.16-2.64-7.31-2.24-6.47-1.86-7.92-2.4-3.88-1.42-7.48-2.78-10.8-6-1.65-1.59-3.69-3.62-3.84-6.48a11.09,11.09,0,0,1,.72-4.08c.72-2.09,1.48-2.61,1.92-3.84.75-2.12-.37-4.23-1.68-7.2a36.41,36.41,0,0,0-1.92-3.6A54.89,54.89,0,0,0,366,88C343.8,61.1,332.71,47.65,317.27,40.73c-2-.89-4.86-2-9.36-4.32a139.25,139.25,0,0,1-19-11.51c-13.66-9.51-32.48-14.08-39.8-15.85a150.89,150.89,0,0,0-51.6-3.12c-4.65.45-10.46,1.66-22.08,4.08C164.59,12.27,155,14.65,154,19a3.85,3.85,0,0,0,.36,2.88c.84,1.27,2.7,1.26,5.22,1.26,2,0,3.25-.12,3.25-.12a105.92,105.92,0,0,1,19.79-.24c2.21.21,4.78.63,9.9,1.62,5.87,1.14,8.81,1.71,11.88,2.52a81.9,81.9,0,0,1,13.68,4.68,73.06,73.06,0,0,1,16,10.08,66.52,66.52,0,0,1,12.24,12.24c2,2.7.83,1.57,6.66,11,5.48,8.85,8.22,12.56,6.84,16-.62,1.53-1.6,1.92-2,4-.34,1.79,0,3.53,1.44,6.84,1.66,3.89,2.75,5.22,3.6,7,2.68,5.76.8,12.06,0,14.76-1.39,4.65-3.9,7.41-8.82,13-1.74,2-5.21,5.21-12.15,11.7-3.92,3.67-6.63,6.1-8.46,8a38.69,38.69,0,0,1-2.79,2.7,20.91,20.91,0,0,0-1.89,1.62c-1.3,1.4-1.41,2.29-2.25,2.43a2.55,2.55,0,0,1-1.8-.72c-1-.71-1-1.3-1.62-1.8-.29-.21-1.09-.7-3.51-.18a14.8,14.8,0,0,0-5,2.07C208,157.07,70,294.81,50.39,311.33c-3.72,3.14-10.82,9.37-20.4,17,0,0-6.73,6.13-14.52,12-1.89,1.43-2.84,2.14-4.2,3-2.81,1.78-3.37,1.7-4.32,2.76A9,9,0,0,0,5,352.61a10.16,10.16,0,0,0,2.64,6,20.87,20.87,0,0,0,3,2.52,40.64,40.64,0,0,1,4.92,5.28c2.38,2.69,3.24,3,6.84,6.24,2.65,2.43,3.56,3.54,7.92,8.16C45.77,397.17,44.43,393.87,47,397.73a23.57,23.57,0,0,0,7.44,6.84,7.35,7.35,0,0,0,3.72,1,6.55,6.55,0,0,0,2.64-.6,5.37,5.37,0,0,0,2.52-2.16,7.82,7.82,0,0,0,.48-1.32c8.75-9.07,22.14-27.83,22.31-28.07,0-.05,0,0,0,0,14.39-19.95,134.88-146.72,167-169.92,1.21-.87,9.86-7.06,8.64-12.24-.72-3-4.63-5-3.84-7.2.34-1,1.33-1.23,2.64-1.92,2.89-1.53,4-3.4,6.72-6.72a126.79,126.79,0,0,1,10.8-11.28c4.92-4.75,4.91-4,9.84-8.88,4.78-4.7,4.9-5.48,7.2-6.72a20,20,0,0,1,13-1.68,35.48,35.48,0,0,1,8.88,3.6c3.13,1.73,4.16,2.85,6.48,2.88a14.86,14.86,0,0,0,6-1.68c2.61-1.14,2.65-1.67,3.84-1.92,3.77-.78,7.69,3.61,8.76,4.8,3.63,4.07,4.73,8.25,6.12,13,3.23,11,4.85,16.56,7.2,21.24,1,2,2.21,3.14,4.88,6.53.54.69,1.8,2.32,3.42,4.57l1.25,1.76,2.33,3.34c4.15,6,8.31,12.07,12.31,13.72a7.32,7.32,0,0,0,1,.32,13.06,13.06,0,0,0,5.76,0c5.81-1.35,10.73-7.57,10.73-7.57C406.94,198.93,434.36,170.86,437.51,168.53Z"/><path class="cls-1" d="M364.6,200.64l1.08-.8c4-3.51,7.13-6.47,9.12-8.4,7.77-7.55,16.15-16.73,21.48-21.84,5.8-5.57,6.26-5.57,11.52-10.8A160.42,160.42,0,0,0,420,145.72c1.26-1.56,2.24-2.85,2.84-3.66"/><path class="cls-1" d="M332.88,149.83c1.77-1,4.1-2.29,6.73-4.05a85.65,85.65,0,0,0,9.63-7.56,110,110,0,0,0,13.14-13.86c3-3.83,5.51-7.7,6.66-9.45s2.1-3.28,2.77-4.39"/><path class="cls-1" d="M260.15,78.31c1.36-2.12,3.26-5,5.66-8.22a122.25,122.25,0,0,1,11-13.23,92.65,92.65,0,0,1,8.91-8.28,95.24,95.24,0,0,1,13.95-9.27c2.72-1.5,5.08-2.63,6.84-3.42"/></g></g></svg>