<svg xmlns="http://www.w3.org/2000/svg" viewBox="0 0 84.77 85.58"><defs><style>.cls-1{fill:none;stroke:#000;stroke-miterlimit:10;stroke-width:6px;}</style></defs><title>telefon</title><g id="Warstwa_2" data-name="Warstwa 2"><g id="Warstwa_1-2" data-name="Warstwa 1"><path class="cls-1" d="M50.45,62.55c9.51-7,20-7.85,29.19-.82,2.21,1.68,2.83,8.61,1.24,11.51-4.36,7.92-12.36,10.25-21.1,9-23.26-3.23-54-33.37-56.67-56.66C2.45,19.89,4.8,13.09,7.78,8c1.75-3,7.5-5,11.4-4.95,2.24,0,5.19,4.84,6.41,8,2.8,7.31,7.17,15.07-1.75,21.81-.81.61.05,4.46,1.07,6.27A54.94,54.94,0,0,0,50.45,62.55Z"/></g></g></svg>